PathFileType	4	(X/Y/Z)	c:/Users/goper/Files/vsCode/490R/osim_files/C10/C10_Fast_02.trc
DataRate	CameraRate	NumFrames	NumMarkers	Units                	OrigDataRate	OrigDataStartFrame	OrigNumFrames
250.00	250.00	8	36	mm	250.0	1154	2307
                Frame#	Time	LPSIS			LASIS			LTH1			LTH2			LTH3			LTH4			LLFE			LMFE			LSH1			LSH2			LSH3			LSH4			LLMAL			LMMAL			LCAL			LMTP5			LTOE			LMTP1			RPSIS			RASIS			RTH1			RTH2			RTH3			RTH4			RLFE			RMFE			RSH1			RSH2			RSH3			RSH4			RLMAL			RMMAL			RCAL			RMTP1			RTOE			RMTP5		
		X1	Y1	Z1	X2	Y2	Z2	X3	Y3	Z3	X4	Y4	Z4	X5	Y5	Z5	X6	Y6	Z6	X7	Y7	Z7	X8	Y8	Z8	X9	Y9	Z9	X10	Y10	Z10	X11	Y11	Z11	X12	Y12	Z12	X13	Y13	Z13	X14	Y14	Z14	X15	Y15	Z15	X16	Y16	Z16	X17	Y17	Z17	X18	Y18	Z18	X19	Y19	Z19	X20	Y20	Z20	X21	Y21	Z21	X22	Y22	Z22	X23	Y23	Z23	X24	Y24	Z24	X25	Y25	Z25	X26	Y26	Z26	X27	Y27	Z27	X28	Y28	Z28	X29	Y29	Z29	X30	Y30	Z30	X31	Y31	Z31	X32	Y32	Z32	X33	Y33	Z33	X34	Y34	Z34	X35	Y35	Z35	X36	Y36	Z36

1154	4.61200	-1570.46008	991.89087	334.10278	-1739.32886	981.16656	452.04333	-1764.74744	750.55115	493.49417	-1790.13965	711.23828	488.19540	-1813.20178	778.64850	471.67068	-1831.13416	734.64496	468.49753	0.00000	0.00000	0.00000	-1909.77905	503.49930	420.74887	-1886.81030	407.55652	426.77017	-1907.93494	368.16418	436.52377	-1946.18286	429.02951	419.85776	-1955.03076	383.89191	424.05536	0.00000	0.00000	0.00000	-2024.21033	116.80177	400.75226	-1985.12341	37.89609	358.20297	-2143.62134	107.51487	421.03668	-2181.12134	147.59518	359.10437	-2160.74902	111.62566	312.06647	-1573.86768	1004.41339	253.46671	-1727.22241	978.82526	115.04383	-1603.20325	737.91754	89.31062	-1604.34668	694.16742	91.01308	-1664.15356	730.25806	81.51254	-1657.13745	686.32477	85.32734	-1581.50952	469.65240	162.52213	-1596.82300	463.53537	271.56299	-1489.26611	398.02084	157.09038	-1483.99097	354.32883	159.02316	-1550.50293	381.42648	162.94218	-1534.77014	341.19696	162.00322	-1442.71851	92.99731	220.54593	-1447.21960	70.61404	307.70850	-1378.92175	47.89291	259.67087	-1571.95886	32.84631	299.04196	-1603.10205	44.70061	257.82370	-1554.88049	31.35233	192.53244
1155	4.61600	-1576.58398	991.01135	334.56516	-1746.10315	979.84662	452.14465	-1769.81042	748.10107	493.43179	-1794.75525	708.46533	488.08578	-1818.90894	775.68750	472.09744	-1836.24719	731.45081	468.85223	0.00000	0.00000	0.00000	-1914.76770	501.95071	420.62335	-1894.85645	407.03464	426.54776	-1917.24268	367.75174	436.42172	-1953.46094	428.55948	419.54913	-1962.97168	383.26404	423.12717	0.00000	0.00000	0.00000	-2038.05237	118.14288	400.22540	-2000.33960	38.33337	358.37601	-2158.02051	111.58556	419.22299	-2195.62695	152.12944	355.93213	-2174.30444	114.31363	309.67068	-1579.86951	1003.47418	253.78348	-1732.99341	977.60297	115.24323	-1607.45813	737.53717	89.79568	-1608.29810	693.77161	91.32832	-1668.20374	729.46185	81.56077	-1660.95630	685.60437	85.29836	-1584.09436	469.36960	162.71635	-1600.11926	462.92950	271.66513	-1491.30725	398.45343	157.75691	-1485.85730	354.68256	159.58549	-1552.47546	381.30966	163.27696	-1536.42590	341.30920	162.23805	-1443.02112	93.57752	220.84904	-1447.24927	71.40546	307.89566	-1379.09460	48.48730	260.00235	-1572.03064	32.85865	299.01712	-1603.14258	44.60073	257.78378	-1554.89624	31.35061	192.54074
1156	4.62000	-1582.84253	990.07043	335.04175	-1752.93311	978.61304	452.27042	-1774.88867	745.69745	493.34848	-1799.28442	705.67914	488.02570	-1824.60767	772.69946	472.58514	-1841.37817	728.24066	469.25620	0.00000	0.00000	0.00000	-1920.84387	500.45081	420.76053	-1902.82898	406.59344	426.34589	-1926.27942	367.38428	436.33298	-1961.37830	428.33115	419.47092	-1971.38672	383.37195	422.70523	0.00000	0.00000	0.00000	-2051.37134	119.42651	399.51688	-2014.99097	38.80122	358.28418	-2171.84253	115.46563	417.38007	-2207.08472	156.92653	353.42877	-2186.37939	119.03915	307.32462	-1585.88342	1002.46429	254.07764	-1738.75171	976.32684	115.44047	-1611.75708	737.10419	90.21862	-1612.27429	693.39618	91.60400	-1672.33728	728.67365	81.64455	-1664.75293	684.84363	85.26450	-1586.81067	469.09897	162.95938	-1603.26733	462.26221	271.82394	-1493.42432	398.85745	158.39394	-1487.81250	355.05768	160.14532	-1554.46838	381.33939	163.49506	-1538.11743	341.37921	162.53613	-1443.33594	94.21832	221.08917	-1447.91736	71.57862	308.30380	-1379.32324	49.21453	260.27884	-1572.10803	32.87168	299.01407	-1603.21973	44.49679	257.74969	-1554.89941	31.35443	192.55807
1157	4.62400	-1589.15967	989.10156	335.42905	-1759.80627	977.35327	452.36960	-1779.95422	743.25787	493.30368	-1803.76721	702.90387	488.03119	-1830.28381	769.68640	472.98026	-1846.31958	724.99921	469.63077	0.00000	0.00000	0.00000	-1927.35437	499.44479	420.70416	-1911.84009	406.30069	430.28323	-1935.26086	367.16980	436.32816	-1968.26147	428.30179	418.80344	-1979.67944	383.45807	422.23917	0.00000	0.00000	0.00000	-2064.98950	120.92992	398.27600	-2029.07520	39.37952	357.93323	-2184.91382	119.05829	415.49124	-2218.91675	160.97934	351.12534	-2198.54077	122.57402	305.31171	-1591.96851	1001.46423	254.33192	-1744.64514	975.02588	115.58231	-1616.19312	736.69086	90.65853	-1616.41309	692.96014	91.91255	-1676.03369	727.81110	81.08558	-1668.58325	684.14429	85.07710	-1589.60815	468.80704	163.13773	-1606.72864	461.64124	271.93179	-1495.61768	399.33234	159.05051	-1489.79285	355.45880	160.72366	-1556.61438	381.24631	163.82321	-1539.88147	341.46960	162.79427	-1443.63635	94.91336	221.37880	-1448.29468	72.11182	308.59009	-1379.54236	50.08017	260.54810	-1572.19409	32.92894	298.92035	-1603.25586	44.36030	257.69397	-1554.88843	31.38610	192.53391
1158	4.62800	-1595.48999	988.11169	335.89337	-1766.66968	976.10565	452.45551	-1785.27759	741.00043	493.33591	-1809.26282	700.29639	488.40689	-1835.98950	766.72528	473.45554	-1851.24170	721.75934	470.10510	0.00000	0.00000	0.00000	-1933.82666	498.24561	420.78217	-1920.78406	405.71719	434.39813	-1941.77417	363.53214	436.09995	-1975.52710	428.13577	418.42398	-1987.75256	383.53818	421.81253	0.00000	0.00000	0.00000	-2077.40820	122.10394	397.27271	-2042.40637	39.96511	357.31152	-2197.57324	122.38194	413.53555	-2230.16748	164.76529	348.79391	-2209.98584	125.96307	303.17767	-1597.98633	1000.39679	254.55890	-1750.41895	973.64545	115.72175	-1620.70667	736.24292	91.06417	-1620.61121	692.54089	92.22008	-1680.43433	726.99426	81.17068	-1672.51758	683.25995	84.87173	-1592.44983	468.52060	163.33566	-1610.16199	461.06314	272.05966	-1497.92297	399.79877	159.73427	-1491.84741	355.87241	161.31544	-1558.80701	381.25800	164.05963	-1541.74036	341.57037	163.08818	-1444.02246	95.63443	221.64862	-1448.64612	72.82432	308.93393	-1379.83801	51.09652	260.81680	-1572.32605	33.00233	298.96118	-1603.30591	44.24251	257.68863	-1554.89404	31.38926	192.50653
1159	4.63200	-1601.85608	987.13062	336.27444	-1773.41541	974.88855	452.54501	-1790.07043	738.82953	493.51019	-1813.69946	697.80579	488.67905	-1841.74402	763.85010	473.85211	-1856.19373	718.66241	470.53018	0.00000	0.00000	0.00000	-1940.42126	497.14557	420.73978	-1928.47876	404.54901	434.63489	-1951.67981	363.08505	437.39572	-1983.28857	427.83557	418.39258	-1995.66260	383.37201	421.36322	0.00000	0.00000	0.00000	-2089.24634	123.10621	396.16135	-2055.19604	40.47378	356.46338	-2209.47046	125.15877	411.50949	-2240.91846	168.24507	346.60577	-2220.92627	129.21410	301.07715	-1604.14075	999.30267	254.82289	-1756.33936	972.32184	115.86438	-1625.33606	735.77692	91.42962	-1624.94287	692.04132	92.51868	-1684.97034	726.19208	81.23644	-1676.71655	682.48975	84.95100	-1594.96313	468.53366	162.58684	-1613.63611	460.39688	272.11523	-1500.31409	400.25778	160.35870	-1494.03333	356.30869	161.83582	-1561.03442	381.23898	164.25575	-1543.67188	341.70419	163.28648	-1444.47949	96.36313	221.85536	-1449.90930	72.87800	308.61945	-1380.17725	52.11066	261.01788	-1572.34363	32.96167	298.87827	-1603.38354	44.09442	257.65948	-1554.66724	31.41978	192.53905
1160	4.63600	-1608.34399	986.10791	336.66238	-1780.38892	973.63611	452.58432	-1795.01550	736.90533	493.79623	-1817.22815	695.49634	488.99161	-1846.79993	761.28052	474.39496	-1861.03809	715.80969	471.17581	0.00000	0.00000	0.00000	-1947.08752	496.09390	420.67395	-1935.97864	403.41208	434.80853	-1959.91992	362.34378	437.47681	-1989.89734	427.44266	417.68475	-2003.39697	383.20975	420.97253	0.00000	0.00000	0.00000	-2100.53613	123.91737	395.04727	-2067.25439	40.85424	355.50995	-2220.81885	127.56814	409.59357	-2251.08838	171.32028	344.49219	-2231.22729	132.12148	299.01080	-1610.33557	998.15649	255.05704	-1762.31616	970.86792	116.02029	-1630.01831	735.29102	91.80241	-1629.35181	691.58447	92.81866	-1689.53687	725.32751	81.33192	-1681.08911	681.70697	85.06911	-1598.11963	468.22418	162.79263	-1617.30835	459.74634	272.17877	-1502.80579	400.74814	160.94633	-1496.31030	356.77545	162.35887	-1563.32288	381.29187	164.32930	-1545.71106	341.85168	163.49706	-1444.96863	97.17583	222.05296	-1450.34973	73.73577	308.78983	-1380.49915	53.28658	261.24222	-1572.39221	32.97269	298.86969	-1603.50269	43.96962	257.65384	-1554.64661	31.41581	192.53856
1161	4.64000	-1614.84033	985.01074	337.10809	-1787.20447	972.45679	452.71851	-1799.96899	735.30212	494.30267	-1822.78381	693.67981	490.00473	-1852.31372	758.99701	474.92023	-1866.00171	713.32056	471.94144	0.00000	0.00000	0.00000	-1953.84009	495.15372	420.55710	-1943.67346	402.24124	434.96649	-1966.33862	361.10764	436.42191	-1997.00134	426.83652	417.32028	-2011.49548	383.14340	420.86771	0.00000	0.00000	0.00000	-2111.15625	124.43787	393.97882	-2078.57080	41.09354	354.42258	-2231.50317	129.76212	408.20737	-2260.70117	173.95412	342.52417	-2241.06885	134.48076	297.13232	-1616.59387	996.99451	255.31068	-1768.40222	969.47034	116.13228	-1634.88831	734.78741	92.21317	-1633.56799	690.94916	93.13525	-1694.18433	724.47186	81.45841	-1685.54639	680.93719	85.16901	-1601.40173	467.94791	162.95857	-1620.99487	459.21420	272.22150	-1505.41150	401.28583	161.49588	-1498.71411	357.25845	162.77066	-1565.83337	381.27231	164.52971	-1547.79333	342.00491	163.63593	-1445.46704	98.01670	222.19833	-1451.16260	74.52203	308.83475	-1380.87903	54.43166	261.42242	-1572.54065	32.98972	298.79895	-1603.54541	43.79341	257.64590	-1554.67566	31.40418	192.54059
